<?xml version="1.0" standalone="no"?>
<!DOCTYPE svg PUBLIC "-//W3C//DTD SVG 20010904//EN"
 "http://www.w3.org/TR/2001/REC-SVG-20010904/DTD/svg10.dtd">
<svg version="1.0" xmlns="http://www.w3.org/2000/svg"
 width="1019.000000pt" height="1019.000000pt" viewBox="0 0 1019.000000 1019.000000"
 preserveAspectRatio="xMidYMid meet">

<g transform="translate(0.000000,1019.000000) scale(0.100000,-0.100000)"
fill="#000000" stroke="none">
<path d="M4849 9129 c-678 -34 -1365 -308 -1864 -744 -384 -335 -662 -753
-787 -1180 -42 -144 -58 -261 -58 -418 0 -198 14 -217 160 -217 l80 0 0 -33
c0 -19 -3 -75 -6 -125 l-7 -92 -31 0 c-52 0 -131 -44 -165 -91 -17 -23 -31
-50 -31 -59 0 -14 -13 -19 -67 -25 -250 -25 -471 -217 -533 -460 -19 -74 -20
-111 -20 -624 0 -604 1 -615 64 -739 102 -200 308 -341 499 -342 54 0 57 -1
57 -25 0 -14 11 -37 25 -51 l25 -25 0 -483 c0 -282 4 -506 10 -537 33 -178
198 -347 369 -379 32 -6 254 -10 542 -10 l489 0 0 98 0 97 -75 -3 -75 -4 0
811 0 811 355 0 355 0 0 -264 0 -264 -152 -4 c-164 -4 -192 -11 -208 -54 -6
-15 -10 -269 -10 -625 l0 -599 263 0 262 1 -40 31 c-90 72 -191 190 -263 308
l-22 35 0 -92 0 -93 -29 0 -29 0 -1 446 -1 445 35 -3 c20 -2 35 -7 34 -13 0
-5 8 -12 18 -16 14 -6 15 -8 2 -8 -11 -1 -16 -13 -18 -43 -3 -60 9 -159 19
-153 4 3 10 -5 13 -17 4 -12 1 -25 -4 -29 -13 -8 -2 -49 13 -49 6 0 8 -12 5
-30 -4 -16 -3 -32 2 -35 5 -2 9 1 8 8 -1 33 4 70 8 65 10 -10 14 -88 4 -93 -5
-4 -9 -18 -9 -33 0 -21 2 -24 10 -12 8 12 10 10 11 -10 0 -14 3 -19 6 -12 3 9
10 4 19 -14 8 -15 12 -34 9 -41 -3 -9 0 -11 7 -7 8 5 9 -2 4 -22 -4 -19 -3
-24 3 -15 6 10 12 4 21 -23 18 -55 116 -224 163 -281 126 -153 299 -249 522
-289 l60 -11 3 -137 3 -137 -180 -3 -180 -3 -30 -29 c-59 -56 -46 -142 24
-172 51 -21 890 -21 940 0 76 32 85 137 16 183 -32 22 -43 23 -214 23 l-179 0
3 133 c2 72 9 135 14 139 6 4 22 8 36 8 56 0 227 52 313 94 112 55 235 151
318 250 35 41 64 73 65 72 2 -2 -4 -27 -13 -57 -16 -55 -69 -141 -131 -214
l-34 -40 858 -3 c608 -2 876 0 918 8 163 31 325 192 364 361 6 26 11 242 11
541 0 484 1 498 20 508 10 6 25 28 31 50 12 38 14 40 53 40 59 0 150 26 217
61 123 66 243 208 290 346 l24 68 0 605 c0 597 0 606 -22 675 -67 214 -285
393 -496 409 -47 4 -48 5 -75 57 -32 64 -96 109 -167 116 l-45 6 0 123 0 124
73 0 c83 0 132 23 143 65 4 14 4 108 1 208 -4 160 -8 196 -35 297 -108 415
-341 802 -683 1135 -179 175 -351 305 -579 438 -412 240 -910 392 -1348 412
-64 3 -142 7 -172 9 -30 1 -120 -1 -201 -5z m341 -218 c46 -4 -12 -6 -150 -7
-295 -1 -515 -32 -807 -115 -629 -178 -1200 -579 -1528 -1072 -26 -39 -57 -85
-67 -100 -44 -64 -159 -309 -193 -410 -42 -126 -61 -217 -70 -344 -4 -51 -11
-93 -16 -93 -12 0 -11 37 1 140 33 272 132 519 320 803 206 311 484 573 836
789 479 295 1132 454 1674 409z m147 -17 c-3 -3 -12 -4 -19 -1 -8 3 -5 6 6 6
11 1 17 -2 13 -5z m-37 -409 c561 -66 1075 -317 1482 -726 170 -170 341 -424
415 -616 23 -59 27 -87 31 -215 l4 -148 -146 0 -146 0 0 380 0 381 -82 -3 -83
-3 -3 -87 -3 -88 -89 0 -90 0 0 -105 0 -105 -44 6 c-61 9 -90 0 -136 -42 -92
-83 -68 -215 47 -266 39 -17 51 -18 88 -9 24 6 45 11 47 11 2 0 1 -215 -2
-478 l-5 -478 -35 -49 c-48 -68 -155 -123 -255 -132 l-70 -5 3 288 c2 159 0
430 -3 602 l-7 312 -259 0 -259 0 1 -107 c0 -60 4 -129 8 -155 l8 -48 -44 0
-43 0 0 -432 c0 -262 -4 -439 -10 -448 -6 -10 -10 374 -10 1094 l0 1108 -207
-4 c-227 -5 -269 -13 -347 -73 l-36 -27 -47 29 c-27 16 -70 37 -98 47 -64 23
-249 32 -330 17 -78 -15 -171 -60 -216 -105 l-37 -36 -501 -3 -501 -2 0 -92 0
-93 476 0 477 0 -8 -147 c-4 -82 -9 -152 -12 -156 -3 -4 -212 -7 -466 -6
l-462 1 -3 -91 -3 -91 477 0 476 0 -6 -22 c-3 -13 -6 -49 -6 -80 l0 -58 -465
0 -465 0 0 -75 0 -75 -255 0 -255 0 0 143 c0 164 8 200 73 327 119 234 321
489 517 654 380 321 826 517 1318 580 146 19 448 19 602 1z m-535 -775 c19 -8
19 -9 -2 -9 -32 -1 -36 -14 -34 -113 l2 -89 -32 17 c-65 33 -157 -5 -194 -82
-44 -92 28 -194 137 -194 41 0 54 5 88 36 40 37 55 37 23 1 -17 -18 -18 -69
-23 -691 l-5 -671 -25 -45 c-44 -77 -148 -138 -263 -153 l-47 -7 1 893 c0 557
4 912 11 945 14 78 71 136 158 163 34 10 180 10 205 -1z m705 -12 c0 -14 -3
-18 -8 -12 -4 7 -38 14 -77 15 l-70 4 -3 -119 c-2 -77 1 -122 8 -126 6 -4 -13
-5 -43 -2 -50 4 -55 2 -80 -28 -36 -42 -36 -88 0 -130 21 -26 32 -31 57 -27
17 2 38 7 46 10 10 5 19 -1 27 -19 10 -22 10 -24 -3 -14 -12 11 -14 -89 -14
-759 0 -424 -1 -771 -2 -771 -2 0 -60 -3 -131 -7 l-127 -6 2 939 3 939 23 37
c25 40 76 74 131 87 20 5 87 9 149 10 110 1 112 1 112 -21z m-122 -388 c-7
-10 -14 -17 -17 -15 -4 4 18 35 25 35 2 0 -1 -9 -8 -20z m119 -262 c-2 -24 -4
-5 -4 42 0 47 2 66 4 43 2 -24 2 -62 0 -85z m2012 -200 c1 -39 -3 -68 -9 -68
-6 0 -9 47 -9 123 2 101 3 113 9 67 5 -30 8 -85 9 -122z m-4379 -648 l0 -390
-230 0 -230 0 0 -50 c0 -48 -1 -50 -29 -50 -28 0 -28 1 -34 68 -10 103 -8 682
3 727 5 22 21 50 35 63 25 21 32 22 256 22 l229 0 0 -390z m1140 347 c0 -24
-3 -92 -7 -150 l-6 -107 -489 -2 -488 -3 0 153 0 152 495 0 495 0 0 -43z
m3159 22 c13 -11 20 -23 16 -27 -4 -4 -10 -1 -12 6 -3 6 -9 12 -14 12 -6 0 -7
-4 -4 -10 3 -5 3 -10 -2 -10 -4 0 -6 -164 -5 -365 l4 -364 -216 -3 c-138 -2
-217 1 -219 7 -2 6 -4 182 -6 393 l-3 382 219 0 c203 -1 220 -2 242 -21z
m-5032 -1981 c-1 -282 -2 -52 -2 512 0 564 1 794 2 513 2 -282 2 -744 0 -1025z
m5313 512 c0 -662 -3 -1011 -10 -1015 -7 -4 -10 337 -10 1015 0 678 3 1019 10
1015 7 -4 10 -353 10 -1015z m-3449 1006 c2 -2 3 -41 1 -85 l-4 -81 -469 0
-469 0 0 -115 c0 -108 -1 -115 -20 -115 -19 0 -20 7 -20 200 l0 200 488 0
c269 0 491 -2 493 -4z m-2095 -212 l-1 -56 -75 -22 c-124 -36 -223 -120 -271
-231 -17 -38 -30 -55 -43 -55 -17 0 -18 6 -13 56 11 107 100 247 194 305 43
27 138 58 179 58 l30 1 0 -56z m5882 15 c122 -59 219 -190 229 -311 6 -65 -8
-79 -26 -25 -31 93 -169 213 -283 244 l-58 16 0 60 0 59 38 -6 c20 -4 65 -21
100 -37z m-607 -384 c7 -5 5 -15 -5 -30 -14 -21 -16 -115 -20 -710 -2 -378 0
-716 4 -752 11 -88 33 -117 91 -120 76 -5 129 -14 129 -23 0 -4 -9 -6 -19 -3
-19 5 -20 -7 -23 -484 l-3 -488 -28 -48 c-44 -74 -91 -100 -193 -105 l-84 -5
-1 1114 c-1 613 0 1123 1 1134 1 11 9 28 17 38 15 16 -21 17 -746 17 l-761 0
-23 27 c-118 141 -214 220 -341 282 -56 27 -117 52 -136 55 l-35 6 35 -14 c47
-19 16 -20 -47 -1 -79 23 -221 35 -320 25 -84 -8 -214 -42 -240 -62 -7 -5 -21
-7 -32 -3 -62 19 -268 -130 -371 -267 l-35 -47 -756 -1 -757 0 17 -32 c15 -30
16 -131 13 -1148 l-2 -1115 -78 6 c-117 9 -172 42 -211 129 l-21 45 0 -53 c0
-29 5 -63 11 -75 9 -19 7 -18 -10 3 -37 47 -41 93 -41 596 l-1 489 60 -3 c33
-2 74 -1 91 3 l30 7 0 766 c0 744 3 825 31 842 14 9 4795 13 4810 5z m-5674
-382 c-1 -43 -3 -10 -3 72 0 83 2 118 3 78 2 -40 2 -107 0 -150z m3386 83
c104 -20 158 -49 209 -110 30 -36 49 -50 62 -48 15 3 16 6 5 14 -12 8 -11 9 1
5 8 -2 14 -11 12 -20 -2 -11 2 -15 12 -11 17 6 70 -59 64 -78 -3 -7 -13 4 -23
25 -21 44 -34 55 -46 36 -7 -12 -9 -12 -9 1 0 11 -3 11 -12 2 -8 -8 -9 -15 -3
-20 6 -4 28 -44 51 -89 l41 -82 -226 -74 c-124 -41 -240 -78 -257 -81 -23 -5
-88 11 -255 63 -123 38 -236 73 -251 77 l-28 6 0 -85 c0 -80 1 -86 23 -92 36
-11 366 -114 431 -136 33 -10 71 -19 85 -19 13 0 140 38 282 85 142 47 265 85
274 85 31 0 14 -18 -23 -23 -61 -10 -70 -23 -62 -87 4 -30 8 -49 9 -41 1 11 4
11 17 0 14 -11 13 -14 -11 -26 -27 -15 -431 -157 -476 -168 -18 -4 -103 18
-281 74 -141 45 -261 81 -267 81 -13 0 -14 -149 -2 -168 3 -5 53 -24 111 -42
58 -17 174 -54 259 -81 85 -27 163 -49 172 -49 10 0 132 38 271 84 288 95 308
100 308 86 0 -5 -8 -10 -19 -10 -10 0 -35 -7 -55 -15 -36 -15 -36 -16 -36 -75
0 -51 3 -60 18 -59 10 0 12 3 5 6 -7 2 -13 10 -13 16 0 8 4 7 12 -1 7 -7 21
-12 32 -12 18 0 19 2 6 11 -11 8 -8 9 13 4 21 -4 27 -3 21 6 -4 8 -3 9 5 5 16
-10 6 -23 -26 -31 -16 -3 -41 -13 -58 -21 -80 -37 -464 -166 -495 -166 -19 0
-133 32 -252 71 -120 38 -232 73 -250 76 l-33 6 3 -83 c2 -46 6 -84 7 -86 2
-2 124 -42 271 -88 l267 -85 271 91 c248 82 322 103 302 83 -4 -4 -13 -8 -19
-8 -7 0 -29 -7 -49 -15 l-38 -14 1 -66 c0 -36 3 -59 6 -52 2 6 13 12 23 12 10
0 26 3 35 6 13 5 14 8 3 15 -9 6 -7 9 10 9 13 0 22 -6 22 -15 0 -8 -5 -15 -11
-15 -5 0 -34 -11 -62 -24 -85 -39 -485 -176 -513 -176 -22 0 -395 113 -589
178 l-50 17 -3 420 c-3 465 2 517 58 639 126 272 406 410 713 352z m458 -3
c13 -16 12 -17 -3 -4 -10 7 -18 15 -18 17 0 8 8 3 21 -13z m79 -84 c15 -28 5
-23 -15 7 -9 15 -12 23 -6 20 6 -4 16 -16 21 -27z m-277 -42 c-3 -5 -8 -4 -12
2 -4 6 -16 18 -27 27 -14 11 -11 11 13 -2 18 -10 29 -22 26 -27z m52 -86 c3
-5 2 -12 -3 -15 -5 -3 -9 1 -9 9 0 17 3 19 12 6z m-3698 -283 c-1 -46 -3 -11
-3 77 0 88 2 125 3 83 2 -42 2 -114 0 -160z m1493 -1023 l0 -965 -76 0 c-86 0
-165 -18 -239 -54 l-50 -24 -6 252 c-4 138 -5 563 -3 944 3 648 4 695 21 724
40 68 86 83 271 87 l82 1 0 -965z m3699 931 c32 -33 32 -33 30 -127 l-2 -94
-33 33 c-28 28 -39 32 -84 32 -43 0 -56 -4 -80 -29 -34 -33 -45 -68 -36 -115
19 -103 140 -134 210 -54 16 18 26 25 22 15 -3 -10 -6 -367 -6 -793 l0 -774
-48 0 c-55 0 -144 -21 -207 -50 -24 -11 -59 -20 -78 -20 l-34 0 -6 218 c-10
338 0 1624 13 1658 18 46 58 92 98 114 28 14 58 19 123 20 84 0 86 -1 118 -34z
m-1362 -101 c-9 -8 -22 -15 -29 -15 -7 0 -2 9 12 20 28 21 40 19 17 -5z m559
-255 c199 0 293 -3 289 -10 -4 -6 -12 -10 -18 -9 -7 1 -138 1 -293 0 l-281 -1
-10 -547 c-11 -599 -10 -585 -75 -720 -191 -391 -694 -555 -1093 -355 -131 65
-263 199 -334 339 -29 58 -26 66 6 18 110 -166 266 -263 503 -311 100 -20 293
-15 385 10 276 76 501 302 565 568 18 77 20 119 20 549 0 256 3 469 7 473 4 3
13 4 21 1 7 -3 146 -5 308 -5z m-606 -364 c0 -2 -7 -7 -16 -10 -8 -3 -12 -2
-9 4 6 10 25 14 25 6z m-23 -48 c-3 -8 -6 -5 -6 6 -1 11 2 17 5 13 3 -3 4 -12
1 -19z m40 -4 c-3 -3 -12 -4 -19 -1 -8 3 -5 6 6 6 11 1 17 -2 13 -5z m-952
-299 c345 -108 414 -127 448 -122 18 2 138 41 267 85 262 89 290 97 290 82 0
-5 -8 -10 -19 -10 -10 0 -35 -7 -55 -15 l-36 -15 0 -64 0 -64 33 4 c39 5 -18
-18 -258 -104 -278 -99 -223 -99 -517 -5 -139 44 -255 79 -258 78 -3 -2 -3
-40 0 -86 l5 -83 245 -82 c135 -46 261 -83 279 -83 19 -1 144 35 277 79 133
44 247 80 254 80 10 0 10 -3 0 -15 -7 -8 -21 -15 -32 -15 -12 0 -17 -4 -12
-12 5 -7 3 -8 -5 -4 -20 13 -69 -13 -75 -39 -12 -47 -109 -138 -191 -178 -200
-101 -438 -75 -642 70 -13 8 -23 13 -23 9 0 -8 60 -68 90 -89 24 -17 24 -17
-9 -1 -51 24 -172 153 -208 220 -53 100 -74 185 -80 328 -6 125 -5 129 13 122
10 -5 109 -36 219 -71z m-558 -217 c-2 -13 -4 -5 -4 17 -1 22 1 32 4 23 2 -10
2 -28 0 -40z m30 30 c-3 -8 -6 -5 -6 6 -1 11 2 17 5 13 3 -3 4 -12 1 -19z m13
-118 c0 -11 -7 -20 -15 -20 -8 0 -15 5 -15 11 0 5 5 7 10 4 6 -3 10 1 10 9 0
9 2 16 5 16 3 0 5 -9 5 -20z"/>
<path d="M4768 5433 c7 -3 16 -2 19 1 4 3 -2 6 -13 5 -11 0 -14 -3 -6 -6z"/>
<path d="M4658 5407 c-30 -12 -37 -27 -13 -27 8 0 15 4 15 8 0 5 10 14 23 20
28 14 10 13 -25 -1z"/>
<path d="M3141 5353 c-70 -35 -77 -144 -11 -178 49 -25 88 -19 126 19 85 85
-7 213 -115 159z"/>
<path d="M3700 5353 c-69 -35 -78 -118 -18 -168 27 -23 39 -26 73 -22 52 7 95
53 95 102 0 24 -8 44 -27 64 -36 38 -78 46 -123 24z"/>
<path d="M6332 5350 c-61 -37 -72 -112 -23 -161 61 -61 166 -21 178 67 4 35 1
46 -23 72 -36 40 -88 48 -132 22z"/>
<path d="M6713 5363 c-36 -7 -63 -50 -63 -100 0 -36 6 -50 29 -74 42 -42 92
-40 137 5 79 79 11 192 -103 169z"/>
<path d="M3051 4446 c-89 -49 -53 -186 49 -186 33 0 48 6 71 29 81 82 -19 213
-120 157z"/>
<path d="M3714 4160 c-74 -17 -114 -70 -114 -152 0 -47 5 -62 27 -89 30 -35
78 -59 120 -59 42 0 110 38 133 74 25 42 27 117 3 158 -32 53 -105 83 -169 68z"/>
<path d="M3306 2260 c-157 -61 -206 -258 -95 -384 152 -172 439 -65 439 164 0
175 -174 286 -344 220z"/>
<path d="M2679 2147 c-50 -26 -89 -89 -89 -145 0 -74 68 -153 143 -167 73 -14
175 50 193 121 11 44 -2 112 -29 148 -51 67 -139 84 -218 43z"/>
<path d="M7202 2163 c-13 -2 -41 -22 -62 -43 -83 -83 -60 -224 44 -271 52 -24
90 -23 142 0 159 72 122 309 -49 317 -29 1 -62 0 -75 -3z"/>
<path d="M6318 2071 c-29 -26 -33 -35 -32 -76 1 -36 7 -52 29 -75 77 -80 217
10 174 111 -28 69 -116 89 -171 40z"/>
<path d="M6735 2088 c-44 -25 -60 -74 -44 -131 12 -43 46 -67 96 -67 74 0 125
68 103 136 -21 63 -98 94 -155 62z"/>
</g>
</svg>
