<?xml version="1.0" standalone="no"?>
<!DOCTYPE svg PUBLIC "-//W3C//DTD SVG 1.0//EN" "http://www.w3.org/TR/2001/REC-SVG-20010904/DTD/svg10.dtd">
<svg xmlns="http://www.w3.org/2000/svg" xmlns:xlink="http://www.w3.org/1999/xlink" id="body_1" width="48" height="48">

<g transform="matrix(0.06 0 0 0.06 0 0)">
    <path d="M8.8429 43.5L39.1571 43.5" stroke="#000000" stroke-width="1" stroke-linecap="square" fill="none" />
    <path d="M13.4223 15.2283C 13.4223 14.3139925 14.163493 13.5728 15.077801 13.5728L15.077801 13.5728L18.8186 13.5728C 19.732908 13.5728 20.4741 14.3139925 20.4741 15.2283L20.4741 15.2283L20.4741 38.8131C 20.4741 39.727406 19.732908 40.468597 18.8186 40.468597L18.8186 40.468597L15.077801 40.468597C 14.163493 40.468597 13.4223 39.727406 13.4223 38.8131L13.4223 38.8131L13.4223 15.2283z" stroke="#000000" stroke-width="1" stroke-linecap="square" fill="none" />
    <path d="M13.4223 18.6161L20.4741 18.6161" stroke="#000000" stroke-width="1" stroke-linecap="square" fill="none" />
    <path d="M20.4741 15.2283C 20.4741 14.3139925 21.215292 13.5728 22.1296 13.5728L22.1296 13.5728L25.8704 13.5728C 26.784708 13.5728 27.5259 14.3139925 27.5259 15.2283L27.5259 15.2283L27.5259 38.8131C 27.5259 39.727406 26.784708 40.468597 25.8704 40.468597L25.8704 40.468597L22.1296 40.468597C 21.215292 40.468597 20.4741 39.727406 20.4741 38.8131L20.4741 38.8131L20.4741 15.2283z" stroke="#000000" stroke-width="1" stroke-linecap="square" fill="none" />
    <path d="M20.4741 18.6161L27.5259 18.6161" stroke="#000000" stroke-width="1" stroke-linecap="square" fill="none" />
    <path d="M27.5259 15.2283C 27.5259 14.3139925 28.267092 13.5728 29.1814 13.5728L29.1814 13.5728L32.9222 13.5728C 33.836506 13.5728 34.577698 14.3139925 34.577698 15.2283L34.577698 15.2283L34.577698 38.8131C 34.577698 39.727406 33.836506 40.468597 32.9222 40.468597L32.9222 40.468597L29.1814 40.468597C 28.267092 40.468597 27.5259 39.727406 27.5259 38.8131L27.5259 38.8131L27.5259 15.2283z" stroke="#000000" stroke-width="1" stroke-linecap="square" fill="none" />
    <path d="M27.5259 18.6161L34.5777 18.6161" stroke="#000000" stroke-width="1" stroke-linecap="square" fill="none" />
    <path d="M37.5124 17.0019C 37.5124 8.9812 32.0208 4.5 24 4.5C 15.979198 4.5 10.4876 8.9812 10.4876 17.0019" stroke="#000000" stroke-width="1" stroke-linecap="square" fill="none" />
    <path d="M9.504 17.0019L10.487599 17.0019L10.487599 17.0019L10.487599 17.0019L10.487599 17.0019L10.487599 26.5154L10.487599 26.5154L10.487599 26.5154L10.487599 26.5154L9.504 26.5154C 8.638731 26.5154 7.808901 26.171673 7.1970634 25.559835C 6.585226 24.947998 6.241499 24.118168 6.2415 23.2529L6.2415 23.2529L6.2415 20.2645C 6.241473 19.399214 6.585188 18.569359 7.197028 17.9575C 7.808869 17.34564 8.638713 17.0019 9.504 17.0019z" stroke="#000000" stroke-width="1" stroke-linecap="square" fill="none" />
    <path transform="matrix(-1 1.5099579E-07 -1.5099579E-07 -1 79.2709 43.5174)"  d="M40.7749 17.0019L41.7585 17.0019L41.7585 17.0019L41.7585 17.0019L41.7585 17.0019L41.7585 26.5154L41.7585 26.5154L41.7585 26.5154L41.7585 26.5154L40.7749 26.5154C 39.909626 26.5154 39.079796 26.171673 38.46796 25.559835C 37.85612 24.947998 37.512394 24.118168 37.512398 23.2529L37.512398 23.2529L37.512398 20.2645C 37.512367 19.399214 37.856083 18.569359 38.467922 17.9575C 39.079765 17.34564 39.90961 17.0019 40.7749 17.0019z" stroke="#000000" stroke-width="1" stroke-linecap="square" fill="none" />
</g>
</svg>